<?xml version="1.0" standalone="no"?>
<!DOCTYPE svg PUBLIC "-//W3C//DTD SVG 20010904//EN"
 "http://www.w3.org/TR/2001/REC-SVG-20010904/DTD/svg10.dtd">
<svg version="1.0" xmlns="http://www.w3.org/2000/svg"
 width="455.000000pt" height="455.000000pt" viewBox="0 0 455.000000 455.000000"
 preserveAspectRatio="xMidYMid meet">
<metadata>
Created by potrace 1.11, written by Peter Selinger 2001-2013
</metadata>
<g transform="translate(0.000000,455.000000) scale(0.100000,-0.100000)"
fill="#000000" stroke="none">
<path d="M1781 4123 c237 -236 435 -429 440 -431 11 -4 12 412 2 676 l-6 182
-434 0 -434 0 432 -427z"/>
<path d="M2272 3398 l-2 -1158 -412 -1 c-227 -1 -739 -5 -1138 -8 l-725 -7
1138 -2 1137 -2 0 -1110 c0 -756 3 -1110 10 -1110 7 0 10 354 10 1113 l-1
1112 1130 3 c820 1 1131 5 1131 13 0 8 -308 10 -1132 8 l-1133 -4 -5 1155 -5
1155 -3 -1157z"/>
<path d="M3260 4121 l0 -431 -462 0 -463 0 465 -465 465 -465 462 462 c255
255 463 466 463 470 0 4 -192 198 -426 430 -402 399 -428 423 -465 426 l-39 3
0 -430z"/>
<path d="M412 3727 l-412 -412 0 -53 0 -52 415 0 415 0 0 -456 c0 -251 1 -458
3 -460 1 -2 211 205 466 460 l462 462 -469 462 -468 461 -412 -412z"/>
<path d="M4148 2707 l-396 -402 106 -6 c59 -4 239 -7 400 -8 l292 -1 0 410 c0
226 -1 410 -2 409 -2 0 -181 -181 -400 -402z"/>
<path d="M3269 1713 l-467 -468 107 -103 c58 -57 269 -266 469 -465 l362 -362
405 405 405 405 0 62 0 63 -405 0 -405 0 -1 453 c-1 248 -1 458 0 465 1 6 1
12 -1 12 -2 0 -213 -210 -469 -467z"/>
<path d="M828 1707 l-467 -463 467 -467 467 -467 470 470 470 470 -467 -2
-468 -3 -2 462 -3 462 -467 -462z"/>
<path d="M2330 508 c0 -145 2 -318 6 -385 l7 -123 386 0 386 0 -385 385 c-212
212 -388 385 -392 385 -4 0 -7 -118 -8 -262z"/>
<path d="M0 330 l0 -330 332 0 333 0 -330 330 c-181 182 -331 330 -332 330 -2
0 -3 -148 -3 -330z"/>
</g>
</svg>
